<svg width="535" height="215" viewBox="0 0 535 215" fill="none" xmlns="http://www.w3.org/2000/svg">
<path d="M73.328 179.48C59.6053 179.48 47.2053 176.008 36.128 169.064C25.216 162.12 16.6187 152.035 10.336 138.808C4.05333 125.416 0.912001 109.213 0.912001 90.2C0.912001 71.1867 4.05333 55.0667 10.336 41.84C16.6187 28.448 25.216 18.28 36.128 11.336C47.2053 4.39199 59.6053 0.919991 73.328 0.919991C87.216 0.919991 99.616 4.39199 110.528 11.336C121.44 18.28 130.037 28.448 136.32 41.84C142.768 55.0667 145.992 71.1867 145.992 90.2C145.992 109.213 142.768 125.416 136.32 138.808C130.037 152.035 121.44 162.12 110.528 169.064C99.616 176.008 87.216 179.48 73.328 179.48ZM73.328 151.456C81.4293 151.456 88.456 149.307 94.408 145.008C100.36 140.544 104.989 133.765 108.296 124.672C111.768 115.579 113.504 104.088 113.504 90.2C113.504 76.1467 111.768 64.656 108.296 55.728C104.989 46.6347 100.36 39.9387 94.408 35.64C88.456 31.176 81.4293 28.944 73.328 28.944C65.5573 28.944 58.6133 31.176 52.496 35.64C46.544 39.9387 41.832 46.6347 38.36 55.728C35.0533 64.656 33.4 76.1467 33.4 90.2C33.4 104.088 35.0533 115.579 38.36 124.672C41.832 133.765 46.544 140.544 52.496 145.008C58.6133 149.307 65.5573 151.456 73.328 151.456ZM166.113 214.448L180.497 159.64L184.713 177.992C178.926 177.992 174.049 176.256 170.081 172.784C166.278 169.147 164.377 164.269 164.377 158.152C164.377 151.869 166.278 146.909 170.081 143.272C174.049 139.469 178.844 137.568 184.465 137.568C190.252 137.568 195.046 139.469 198.849 143.272C202.652 147.075 204.553 152.035 204.553 158.152C204.553 159.805 204.388 161.624 204.057 163.608C203.726 165.427 203.148 167.576 202.321 170.056C201.66 172.536 200.502 175.677 198.849 179.48L186.201 214.448H166.113ZM294.93 179.48C281.207 179.48 268.807 176.008 257.73 169.064C246.818 162.12 238.22 152.035 231.938 138.808C225.655 125.416 222.514 109.213 222.514 90.2C222.514 71.1867 225.655 55.0667 231.938 41.84C238.22 28.448 246.818 18.28 257.73 11.336C268.807 4.39199 281.207 0.919991 294.93 0.919991C308.818 0.919991 321.218 4.39199 332.13 11.336C343.042 18.28 351.639 28.448 357.922 41.84C364.37 55.0667 367.594 71.1867 367.594 90.2C367.594 109.213 364.37 125.416 357.922 138.808C351.639 152.035 343.042 162.12 332.13 169.064C321.218 176.008 308.818 179.48 294.93 179.48ZM294.93 151.456C303.031 151.456 310.058 149.307 316.01 145.008C321.962 140.544 326.591 133.765 329.898 124.672C333.37 115.579 335.106 104.088 335.106 90.2C335.106 76.1467 333.37 64.656 329.898 55.728C326.591 46.6347 321.962 39.9387 316.01 35.64C310.058 31.176 303.031 28.944 294.93 28.944C287.159 28.944 280.215 31.176 274.098 35.64C268.146 39.9387 263.434 46.6347 259.962 55.728C256.655 64.656 255.002 76.1467 255.002 90.2C255.002 104.088 256.655 115.579 259.962 124.672C263.434 133.765 268.146 140.544 274.098 145.008C280.215 149.307 287.159 151.456 294.93 151.456ZM461.797 179.48C448.074 179.48 435.674 176.008 424.597 169.064C413.685 162.12 405.087 152.035 398.805 138.808C392.522 125.416 389.381 109.213 389.381 90.2C389.381 71.1867 392.522 55.0667 398.805 41.84C405.087 28.448 413.685 18.28 424.597 11.336C435.674 4.39199 448.074 0.919991 461.797 0.919991C475.685 0.919991 488.085 4.39199 498.997 11.336C509.909 18.28 518.506 28.448 524.789 41.84C531.237 55.0667 534.461 71.1867 534.461 90.2C534.461 109.213 531.237 125.416 524.789 138.808C518.506 152.035 509.909 162.12 498.997 169.064C488.085 176.008 475.685 179.48 461.797 179.48ZM461.797 151.456C469.898 151.456 476.925 149.307 482.877 145.008C488.829 140.544 493.458 133.765 496.765 124.672C500.237 115.579 501.973 104.088 501.973 90.2C501.973 76.1467 500.237 64.656 496.765 55.728C493.458 46.6347 488.829 39.9387 482.877 35.64C476.925 31.176 469.898 28.944 461.797 28.944C454.026 28.944 447.082 31.176 440.965 35.64C435.013 39.9387 430.301 46.6347 426.829 55.728C423.522 64.656 421.869 76.1467 421.869 90.2C421.869 104.088 423.522 115.579 426.829 124.672C430.301 133.765 435.013 140.544 440.965 145.008C447.082 149.307 454.026 151.456 461.797 151.456Z" fill="#10C8A6"/>
</svg>
